<svg width="104" height="123" viewBox="0 0 104 123" fill="none" xmlns="http://www.w3.org/2000/svg">
<g clip-path="url(#clip0_1199_73501)">
<path d="M61.6923 117.227C61.6923 117.598 61.656 117.95 61.5833 118.283C61.5227 118.617 61.4078 118.92 61.2381 119.192C61.0808 119.451 60.8628 119.661 60.5842 119.822C60.3055 119.995 59.9545 120.1 59.5305 120.137L59.3489 119.562C59.6395 119.538 59.9 119.445 60.13 119.284C60.3723 119.111 60.5599 118.864 60.6932 118.543C60.8264 118.209 60.893 117.795 60.893 117.301V107.217L59.5669 107.18V106.476H61.6923V117.227ZM68.2166 103.918L67.2356 105.512H66.6906L67.4536 103.473C67.4899 103.374 67.5444 103.293 67.6171 103.232C67.6898 103.17 67.7686 103.133 67.8533 103.12C67.938 103.108 68.0229 103.127 68.1076 103.176C68.2045 103.226 68.2649 103.293 68.2892 103.38C68.3256 103.466 68.3376 103.553 68.3256 103.639C68.3135 103.726 68.2772 103.819 68.2166 103.918ZM70.8506 116.003C70.8506 116.794 70.6871 117.462 70.3602 118.005C70.0452 118.549 69.6033 118.963 69.034 119.247C68.4648 119.519 67.8049 119.655 67.054 119.655C66.303 119.655 65.637 119.519 65.0557 119.247C64.4744 118.975 64.0202 118.568 63.6933 118.024C63.3783 117.48 63.2209 116.807 63.2209 116.003V106.476H64.0021V116.003C64.0021 116.634 64.1292 117.165 64.3836 117.598C64.6499 118.018 65.0073 118.339 65.4554 118.561C65.9156 118.772 66.4424 118.877 67.0358 118.877C67.6414 118.877 68.1682 118.772 68.6162 118.561C69.0642 118.351 69.4155 118.03 69.6699 117.598C69.9242 117.165 70.0513 116.634 70.0513 116.003V106.476H70.8506V116.003ZM81.3319 106.476V119.451H80.5508L73.1754 107.94V119.451H72.3761V106.476H73.1754L80.5508 117.987V106.476H81.3319ZM82.7798 107.18V106.476H84.9233V119.451H84.1422V107.217L82.7798 107.18ZM86.2815 110.035C86.2815 108.786 86.6205 107.835 87.2988 107.18C87.9891 106.513 88.9337 106.179 90.1326 106.179C91.3316 106.179 92.2642 106.525 92.9302 107.217C93.5962 107.897 93.9293 108.842 93.9293 110.053V116.003C93.9293 116.757 93.7658 117.406 93.4388 117.95C93.1239 118.493 92.682 118.914 92.1127 119.21C91.5435 119.507 90.8775 119.655 90.1145 119.655C89.4121 119.655 88.7702 119.519 88.1889 119.247C87.6076 118.975 87.1414 118.568 86.7901 118.024C86.4511 117.48 86.2815 116.807 86.2815 116.003V110.035ZM87.0808 116.003C87.0808 116.634 87.2141 117.165 87.4804 117.598C87.7468 118.018 88.1042 118.339 88.5522 118.561C89.0125 118.772 89.527 118.877 90.0963 118.877C90.6897 118.877 91.2106 118.778 91.6586 118.58C92.1189 118.37 92.4761 118.049 92.7304 117.616C92.9967 117.184 93.13 116.646 93.13 116.003V109.905C93.13 109.275 93.009 108.743 92.7667 108.311C92.5367 107.866 92.1915 107.532 91.7313 107.31C91.2832 107.075 90.7383 106.958 90.0963 106.958C89.4787 106.958 88.9398 107.075 88.4795 107.31C88.0315 107.532 87.6864 107.866 87.4441 108.311C87.2018 108.743 87.0808 109.281 87.0808 109.923V116.003ZM99.8165 106.476C100.398 106.476 100.906 106.556 101.342 106.717C101.778 106.865 102.142 107.1 102.432 107.421C102.735 107.742 102.959 108.162 103.104 108.681C103.262 109.2 103.341 109.818 103.341 110.535C103.341 111.252 103.268 111.87 103.123 112.389C102.989 112.895 102.778 113.316 102.487 113.649C102.208 113.983 101.839 114.236 101.379 114.409L103.395 119.451H102.578L100.652 114.613C100.567 114.626 100.476 114.638 100.38 114.65C100.283 114.663 100.18 114.675 100.071 114.687C99.9738 114.687 99.871 114.687 99.762 114.687H96.2378V119.451H95.4385V106.476H99.8165ZM99.8165 113.89C100.24 113.89 100.616 113.841 100.943 113.742C101.282 113.643 101.566 113.47 101.797 113.223C102.039 112.976 102.22 112.636 102.342 112.203C102.475 111.759 102.541 111.202 102.541 110.535C102.541 109.917 102.475 109.398 102.342 108.978C102.22 108.558 102.045 108.224 101.815 107.977C101.584 107.718 101.306 107.532 100.979 107.421C100.652 107.31 100.283 107.254 99.871 107.254H96.2378V113.89H99.8165Z" fill="#E5E7EA"/>
<path d="M7.69445 118.478C6.72559 118.478 5.82336 118.317 4.98772 117.996C4.16419 117.662 3.44362 117.199 2.82598 116.606C2.22045 116 1.74814 115.29 1.40904 114.474C1.06994 113.659 0.900391 112.769 0.900391 111.805C0.900391 110.841 1.06994 109.951 1.40904 109.136C1.74814 108.32 2.2265 107.616 2.84414 107.022C3.46179 106.417 4.18236 105.954 5.00589 105.632C5.82942 105.299 6.73166 105.132 7.71262 105.132C8.75414 105.132 9.70481 105.317 10.5647 105.688C11.4245 106.046 12.1512 106.584 12.7446 107.3L11.2186 108.765C10.7584 108.258 10.2437 107.881 9.67454 107.634C9.10533 107.375 8.48769 107.245 7.82161 107.245C7.15553 107.245 6.54393 107.356 5.98685 107.579C5.44187 107.801 4.9635 108.116 4.55174 108.524C4.15209 108.932 3.83721 109.414 3.60711 109.97C3.38912 110.526 3.28013 111.138 3.28013 111.805C3.28013 112.472 3.38912 113.084 3.60711 113.64C3.83721 114.196 4.15209 114.678 4.55174 115.086C4.9635 115.494 5.44187 115.809 5.98685 116.031C6.54393 116.254 7.15553 116.365 7.82161 116.365C8.48769 116.365 9.10533 116.241 9.67454 115.994C10.2437 115.735 10.7584 115.345 11.2186 114.826L12.7446 116.309C12.1512 117.014 11.4245 117.551 10.5647 117.922C9.70481 118.293 8.74807 118.478 7.69445 118.478ZM18.7767 118.422C17.7836 118.422 16.8995 118.206 16.1244 117.774C15.3494 117.329 14.7378 116.723 14.2897 115.957C13.8416 115.191 13.6175 114.32 13.6175 113.343C13.6175 112.355 13.8416 111.484 14.2897 110.73C14.7378 109.964 15.3494 109.364 16.1244 108.932C16.8995 108.499 17.7836 108.283 18.7767 108.283C19.7819 108.283 20.672 108.499 21.4471 108.932C22.2343 109.364 22.8459 109.957 23.2819 110.711C23.7299 111.465 23.954 112.342 23.954 113.343C23.954 114.32 23.7299 115.191 23.2819 115.957C22.8459 116.723 22.2343 117.329 21.4471 117.774C20.672 118.206 19.7819 118.422 18.7767 118.422ZM18.7767 116.439C19.3338 116.439 19.8303 116.315 20.2663 116.068C20.7023 115.821 21.0414 115.463 21.2836 114.993C21.5379 114.524 21.6651 113.974 21.6651 113.343C21.6651 112.701 21.5379 112.151 21.2836 111.694C21.0414 111.224 20.7023 110.866 20.2663 110.619C19.8303 110.371 19.3398 110.248 18.7948 110.248C18.2378 110.248 17.7412 110.371 17.3052 110.619C16.8814 110.866 16.5423 111.224 16.2879 111.694C16.0336 112.151 15.9065 112.701 15.9065 113.343C15.9065 113.974 16.0336 114.524 16.2879 114.993C16.5423 115.463 16.8814 115.821 17.3052 116.068C17.7412 116.315 18.2317 116.439 18.7767 116.439ZM38.3692 108.283C39.1444 108.283 39.8286 108.437 40.4219 108.746C41.0275 109.055 41.4998 109.531 41.8389 110.174C42.1781 110.804 42.3475 111.62 42.3475 112.62V118.293H40.0768V112.917C40.0768 112.04 39.8892 111.385 39.5136 110.952C39.1383 110.52 38.5994 110.303 37.8968 110.303C37.4005 110.303 36.9583 110.415 36.5707 110.637C36.1954 110.86 35.8986 111.187 35.6806 111.62C35.4749 112.052 35.3718 112.602 35.3718 113.269V118.293H33.101V112.917C33.101 112.04 32.9135 111.385 32.5379 110.952C32.1625 110.52 31.6237 110.303 30.9211 110.303C30.4247 110.303 29.9826 110.415 29.595 110.637C29.2197 110.86 28.9229 111.187 28.7049 111.62C28.4992 112.052 28.3961 112.602 28.3961 113.269V118.293H26.1253V108.394H28.2871V111.026L27.9056 110.248C28.2326 109.605 28.7049 109.117 29.3225 108.783C29.9524 108.45 30.6668 108.283 31.4661 108.283C32.3744 108.283 33.1617 108.512 33.8277 108.969C34.5059 109.426 34.954 110.118 35.172 111.045L34.2818 110.73C34.5968 109.988 35.1175 109.395 35.8441 108.95C36.5707 108.505 37.4125 108.283 38.3692 108.283ZM50.6264 118.422C49.8391 118.422 49.1186 118.237 48.4647 117.866C47.8227 117.496 47.3082 116.94 46.9205 116.198C46.5452 115.444 46.3574 114.493 46.3574 113.343C46.3574 112.182 46.5391 111.23 46.9024 110.489C47.2777 109.747 47.7864 109.197 48.4283 108.839C49.0703 108.468 49.8028 108.283 50.6264 108.283C51.5831 108.283 52.4248 108.493 53.1515 108.913C53.8901 109.333 54.4714 109.92 54.8954 110.674C55.3314 111.428 55.5494 112.318 55.5494 113.343C55.5494 114.369 55.3314 115.265 54.8954 116.031C54.4714 116.785 53.8901 117.372 53.1515 117.792C52.4248 118.212 51.5831 118.422 50.6264 118.422ZM45.2493 121.889V108.394H47.411V110.73L47.3384 113.362L47.52 115.994V121.889H45.2493ZM50.3721 116.439C50.9171 116.439 51.4014 116.315 51.8253 116.068C52.2613 115.821 52.6065 115.463 52.8608 114.993C53.1151 114.524 53.2423 113.974 53.2423 113.343C53.2423 112.701 53.1151 112.151 52.8608 111.694C52.6065 111.224 52.2613 110.866 51.8253 110.619C51.4014 110.371 50.9171 110.248 50.3721 110.248C49.8271 110.248 49.3366 110.371 48.9006 110.619C48.4647 110.866 48.1195 111.224 47.8652 111.694C47.6109 112.151 47.4837 112.701 47.4837 113.343C47.4837 113.974 47.6109 114.524 47.8652 114.993C48.1195 115.463 48.4647 115.821 48.9006 116.068C49.3366 116.315 49.8271 116.439 50.3721 116.439Z" fill="#E5E7EA"/>
</g>
<path fill-rule="evenodd" clip-rule="evenodd" d="M70.647 85.6694C70.647 86.6966 71.4798 87.5294 72.507 87.5294H90.6694C91.6966 87.5294 92.5294 86.6966 92.5294 85.6694V67.507C92.5294 66.4798 91.6966 65.647 90.6694 65.647H72.507C71.4798 65.647 70.647 66.4798 70.647 67.507V85.6694ZM92.5349 54.7059C95.5537 54.7029 98 52.2547 98 49.2353V5.47059C98 2.44927 95.5508 0 92.5294 0H48.7647C45.7434 0 43.2941 2.44928 43.2941 5.47059V49.2353C43.2941 52.2544 45.7398 54.7022 48.758 54.7059H48.7647H54.2353H54.2448H70.6375H70.647H92.5294H92.5349ZM65.1765 65.647V87.5294C65.1765 90.5508 67.6257 93 70.647 93H92.5294C95.5508 93 98 90.5508 98 87.5294V65.647C98 62.6257 95.5508 60.1765 92.5294 60.1765H70.647C67.6257 60.1765 65.1765 62.6257 65.1765 65.647ZM59.7059 65.6415C59.7029 62.6228 57.2547 60.1765 54.2353 60.1765H41.2877C39.3745 60.1765 37.8235 58.6255 37.8235 56.7122V49.242V49.2353V43.7647V43.7599C37.8209 40.7408 35.3727 38.2941 32.353 38.2941H10.4706C7.44927 38.2941 5 40.7434 5 43.7647V87.5294C5 90.5508 7.44928 93 10.4706 93H54.2353C57.2547 93 59.7029 90.5537 59.7059 87.5349V87.5294V65.647V65.6415ZM32.3569 32.8235C35.3748 32.8215 37.8209 30.3756 37.8235 27.3577V27.353V5.47059V5.4667C37.8215 2.44716 35.373 0 32.353 0H10.4706C7.44927 0 5 2.44927 5 5.47059V27.353C5 30.373 7.44716 32.8215 10.4667 32.8235H10.4706H32.353H32.3569ZM12.3306 43.7647C11.3033 43.7647 10.4706 44.5975 10.4706 45.6247L10.4706 85.6694C10.4706 86.6966 11.3033 87.5294 12.3306 87.5294H52.3753C53.4025 87.5294 54.2353 86.6966 54.2353 85.6694V67.507C54.2353 66.4798 53.4025 65.647 52.3753 65.647H41.2877C36.3532 65.647 32.353 61.6468 32.353 56.7122V45.6247C32.353 44.5975 31.5202 43.7647 30.493 43.7647H12.3306ZM48.7647 47.3753C48.7647 48.4025 49.5975 49.2353 50.6247 49.2353H90.6694C91.6966 49.2353 92.5294 48.4025 92.5294 47.3753V7.33059C92.5294 6.30334 91.6966 5.47059 90.6694 5.47059L50.6247 5.47059C49.5975 5.47059 48.7647 6.30334 48.7647 7.33059V47.3753ZM10.4706 25.493C10.4706 26.5202 11.3033 27.353 12.3306 27.353H30.493C31.5202 27.353 32.353 26.5202 32.353 25.493V7.33059C32.353 6.30334 31.5202 5.47059 30.493 5.47059H12.3306C11.3033 5.47059 10.4706 6.30334 10.4706 7.33059V25.493Z" fill="#E5E7EA"/>
<defs>
<clipPath id="clip0_1199_73501">
<rect width="104" height="19" fill="white" transform="translate(0 103)"/>
</clipPath>
</defs>
</svg>
